# Blender v2.91.0 OBJ File: 'Room.blend'
# www.blender.org
mtllib Room_SR_0001.mtl
o obj_0.001
v -0.994135 1.107863 0.986821
v -0.994135 0.027863 0.986821
v 0.955865 0.027863 0.986821
v 0.955865 1.107863 0.986821
v 0.955865 1.107863 -0.963179
v 0.955865 0.027863 -0.963179
v -0.994135 0.027863 -0.963179
v -0.994135 1.107863 -0.963179
v -0.969165 1.107863 -0.938209
v -0.969165 1.107863 0.961851
v -0.994135 0.027863 0.406801
v -0.994135 0.657893 0.406801
v 0.930895 1.107863 -0.938209
v 0.930895 1.107863 0.961851
v 0.930895 0.027863 0.961851
v 0.930895 0.027863 -0.938209
v -0.994135 0.027863 0.806851
v -0.994135 0.657893 0.806851
v -0.969165 0.657893 0.406801
v -0.969165 0.027863 0.406801
v -0.969165 0.027863 -0.938209
v -0.969165 0.027863 0.806851
v -0.969165 0.657893 0.806851
v -0.969165 0.027863 0.961851
v -0.994135 -0.002137 0.986821
v 0.955865 -0.002137 0.986821
v 0.955865 -0.002137 -0.963179
v -0.994135 -0.002137 -0.963179
v -0.961615 0.027863 0.806851
v -0.961615 -0.002137 0.406801
v -0.994135 -0.002137 0.406801
v -0.994135 -0.002137 0.806851
v -0.961615 -0.002137 0.806851
v -0.961615 0.027863 0.406801
v -0.019135 -0.002137 0.986821
v -0.019135 -0.002137 -0.963179
v -0.019135 0.012863 -0.963179
vn -0.5773 0.5773 0.5773
vn -0.7071 0.0000 0.7071
vn 0.7071 0.0000 0.7071
vn 0.5773 0.5773 0.5773
vn 0.5773 0.5773 -0.5773
vn 0.7071 0.0000 -0.7071
vn -0.7071 0.0000 -0.7071
vn -0.5773 0.5773 -0.5773
vn 0.3015 0.9045 0.3015
vn 0.3015 0.9045 -0.3015
vn -0.9045 -0.3015 0.3015
vn -0.3015 0.9045 0.3015
vn -0.3015 0.9045 -0.3015
vn -0.9045 -0.3015 -0.3015
vn 0.9045 -0.3015 0.3015
vn 0.3015 0.3015 0.9045
vn 0.3015 0.3015 -0.9045
vn 0.9045 -0.3015 -0.3015
vn -0.5773 -0.5773 0.5773
vn 0.0000 -0.7071 0.7071
vn 0.5773 -0.5773 0.5773
vn 0.5773 -0.5773 -0.5773
vn 0.0000 -0.7071 -0.7071
vn -0.5773 -0.5773 -0.5773
vn 0.0000 0.0000 -1.0000
vn -0.3015 -0.9045 0.3015
vn -0.3015 -0.9045 -0.3015
usemtl color_30377
s 1
f 1//1 2//2 3//3
f 1//1 3//3 4//4
f 5//5 6//6 7//7
f 5//5 7//7 8//8
f 9//9 1//1 10//10
f 11//2 12//11 7//7
f 1//1 8//8 12//11
f 13//12 14//13 5//5
f 15//8 14//13 16//1
f 13//12 16//1 14//13
f 17//7 2//2 18//14
f 13//12 5//5 9//9
f 5//5 8//8 9//9
f 1//1 9//9 8//8
f 7//7 12//11 8//8
f 9//9 10//10 19//15
f 4//4 5//5 14//13
f 4//4 14//13 10//10
f 4//4 10//10 1//1
f 1//1 18//14 2//2
f 20//16 21//4 19//15
f 21//4 9//9 19//15
f 18//14 1//1 12//11
f 5//5 4//4 3//3
f 22//17 23//18 24//5
f 10//10 24//5 23//18
f 23//18 19//15 10//10
f 5//5 3//3 6//6
f 23//18 18//14 12//11
f 23//18 12//11 19//15
f 19//15 12//11 11//2
f 19//15 11//2 20//16
f 18//14 23//18 22//17
f 18//14 22//17 17//7
f 16//1 13//12 9//9
f 16//1 9//9 21//4
f 24//5 10//10 14//13
f 24//5 14//13 15//8
usemtl color_15277357
f 2//2 25//19 35//20 26//21
f 2//2 26//21 3//3
f 6//6 27//22 36//23 28//24 37//25
f 6//6 37//25 28//24 7//7
f 22//17 24//5 29//13
f 15//8 29//13 24//5
f 27//22 26//21 30//26
f 31//19 28//24 30//26
f 28//24 36//23 27//22 30//26
f 25//19 32//24 33//27
f 33//27 30//26 26//21
f 25//19 33//27 26//21 35//20
f 7//7 28//24 31//19
f 11//2 7//7 31//19
f 3//3 27//22 6//6
f 17//7 32//24 25//19
f 2//2 17//7 25//19
f 3//3 26//21 27//22
f 34//12 30//26 33//27
f 34//12 33//27 29//13
f 30//26 34//12 20//16
f 11//2 31//19 20//16
f 30//26 20//16 31//19
f 29//13 33//27 22//17
f 33//27 32//24 22//17
f 17//7 22//17 32//24
f 29//13 15//8 34//12
f 16//1 34//12 15//8
f 21//4 20//16 34//12
f 21//4 34//12 16//1
