# Blender v2.91.0 OBJ File: 'Room.blend'
# www.blender.org
mtllib Room_SR.mtl
o obj_0.001
v -1.950000 1.110000 1.950000
v -1.950000 0.030000 1.950000
v 0.000000 0.030000 1.950000
v 0.000000 1.110000 1.950000
v 0.000000 1.110000 0.000000
v 0.000000 0.030000 0.000000
v -1.950000 0.030000 0.000000
v -1.950000 1.110000 0.000000
v -1.925030 1.110000 0.024970
v -1.925030 1.110000 1.925030
v -1.950000 0.030000 1.369980
v -1.950000 0.660030 1.369980
v -0.024970 1.110000 0.024970
v -0.024970 1.110000 1.925030
v -0.024970 0.030000 1.925030
v -0.024970 0.030000 0.024970
v -1.950000 0.030000 1.770030
v -1.950000 0.660030 1.770030
v -1.925030 0.660030 1.369980
v -1.925030 0.030000 1.369980
v -1.925030 0.030000 0.024970
v -1.925030 0.030000 1.770030
v -1.925030 0.660030 1.770030
v -1.925030 0.030000 1.925030
v -1.950000 0.000000 1.950000
v 0.000000 0.000000 1.950000
v 0.000000 0.000000 0.000000
v -1.950000 0.000000 0.000000
v -1.917480 0.030000 1.770030
v -1.917480 0.000000 1.369980
v -1.950000 0.000000 1.369980
v -1.950000 0.000000 1.770030
v -1.917480 0.000000 1.770030
v -1.917480 0.030000 1.369980
vn -0.5773 0.5773 0.5773
vn -0.7071 0.0000 0.7071
vn 0.7071 0.0000 0.7071
vn 0.5773 0.5773 0.5773
vn 0.5773 0.5773 -0.5773
vn 0.7071 0.0000 -0.7071
vn -0.7071 0.0000 -0.7071
vn -0.5773 0.5773 -0.5773
vn 0.3015 0.9045 0.3015
vn 0.3015 0.9045 -0.3015
vn -0.9045 -0.3015 0.3015
vn -0.3015 0.9045 0.3015
vn -0.3015 0.9045 -0.3015
vn -0.9045 -0.3015 -0.3015
vn 0.9045 -0.3015 0.3015
vn 0.3015 0.3015 0.9045
vn 0.3015 0.3015 -0.9045
vn 0.9045 -0.3015 -0.3015
vn -0.5773 -0.5773 0.5773
vn 0.5773 -0.5773 0.5773
vn 0.5773 -0.5773 -0.5773
vn -0.5773 -0.5773 -0.5773
vn -0.3015 -0.9045 0.3015
vn -0.3015 -0.9045 -0.3015
usemtl color_30377
s 1
f 1//1 2//2 3//3
f 1//1 3//3 4//4
f 5//5 6//6 7//7
f 5//5 7//7 8//8
f 9//9 1//1 10//10
f 11//2 12//11 7//7
f 1//1 8//8 12//11
f 13//12 14//13 5//5
f 15//8 14//13 16//1
f 13//12 16//1 14//13
f 17//7 2//2 18//14
f 13//12 5//5 9//9
f 5//5 8//8 9//9
f 1//1 9//9 8//8
f 7//7 12//11 8//8
f 9//9 10//10 19//15
f 4//4 5//5 14//13
f 4//4 14//13 10//10
f 4//4 10//10 1//1
f 1//1 18//14 2//2
f 20//16 21//4 19//15
f 21//4 9//9 19//15
f 18//14 1//1 12//11
f 5//5 4//4 3//3
f 22//17 23//18 24//5
f 10//10 24//5 23//18
f 23//18 19//15 10//10
f 5//5 3//3 6//6
f 23//18 18//14 12//11
f 23//18 12//11 19//15
f 19//15 12//11 11//2
f 19//15 11//2 20//16
f 18//14 23//18 22//17
f 18//14 22//17 17//7
f 16//1 13//12 9//9
f 16//1 9//9 21//4
f 24//5 10//10 14//13
f 24//5 14//13 15//8
usemtl color_15277357
f 2//2 25//19 26//20
f 2//2 26//20 3//3
f 6//6 27//21 28//22
f 6//6 28//22 7//7
f 22//17 24//5 29//13
f 15//8 29//13 24//5
f 27//21 26//20 30//23
f 31//19 28//22 30//23
f 28//22 27//21 30//23
f 25//19 32//22 33//24
f 33//24 30//23 26//20
f 25//19 33//24 26//20
f 7//7 28//22 31//19
f 11//2 7//7 31//19
f 3//3 27//21 6//6
f 17//7 32//22 25//19
f 2//2 17//7 25//19
f 3//3 26//20 27//21
f 34//12 30//23 33//24
f 34//12 33//24 29//13
f 30//23 34//12 20//16
f 11//2 31//19 20//16
f 30//23 20//16 31//19
f 29//13 33//24 22//17
f 33//24 32//22 22//17
f 17//7 22//17 32//22
f 29//13 15//8 34//12
f 16//1 34//12 15//8
f 21//4 20//16 34//12
f 21//4 34//12 16//1
